<svg xmlns="http://www.w3.org/2000/svg" version="1.1" xmlns:xlink="http://www.w3.org/1999/xlink" xmlns:svgjs="http://svgjs.dev/svgjs" width="1000" height="1000" viewBox="0 0 1000 1000"><rect width="1000" height="1000" fill="#e0e7eb"></rect><g transform="matrix(0.7,0,0,0.7,149.5757856046829,384.45936649458747)"><svg viewBox="0 0 396 131" data-background-color="#e0e7eb" preserveAspectRatio="xMidYMid meet" height="330" width="1000" xmlns="http://www.w3.org/2000/svg" xmlns:xlink="http://www.w3.org/1999/xlink"><g id="tight-bounds" transform="matrix(1,0,0,1,0.23998414363654774,0.023043243329169627)"><svg viewBox="0 0 395.52 130.95391309169833" height="130.95391309169833" width="395.52"><g><svg viewBox="0 0 615.7689950615411 203.876819032796" height="130.95391309169833" width="395.52"><g transform="matrix(1,0,0,1,220.24899506154108,28.176897565314064)"><svg viewBox="0 0 395.52 147.52302390216786" height="147.52302390216786" width="395.52"><g><svg viewBox="0 0 395.52 147.52302390216786" height="147.52302390216786" width="395.52"><g><svg viewBox="0 0 395.52 147.52302390216786" height="147.52302390216786" width="395.52"><g transform="matrix(1,0,0,1,0,0)"><svg width="395.52" viewBox="2.4800004959106445 -34.93000411987305 269.8399658203125 85.9100112915039" height="147.52302390216786" data-palette-color="#000000"><svg></svg><svg></svg><g class="undefined-text-0" data-fill-palette-color="primary" id="text-0"><path xmlns="http://www.w3.org/2000/svg" d="M16.18 0.65v0c-2.82 0-5.25-0.687-7.29-2.06-2.04-1.38-3.62-3.323-4.74-5.83-1.113-2.507-1.67-5.45-1.67-8.83v0c0-3.573 0.59-6.57 1.77-8.99 1.187-2.427 2.817-4.26 4.89-5.5 2.073-1.247 4.42-1.87 7.04-1.87v0c3.513 0 6.313 0.873 8.4 2.62 2.08 1.74 3.463 4 4.15 6.78v0l-5.08 0.98c-0.6-1.853-1.55-3.333-2.85-4.44-1.3-1.107-2.84-1.66-4.62-1.66v0c-1.567 0-3 0.45-4.3 1.35-1.3 0.9-2.343 2.247-3.13 4.04-0.78 1.787-1.17 4.017-1.17 6.69v0c0 2.46 0.323 4.62 0.97 6.48 0.653 1.86 1.613 3.307 2.88 4.34 1.267 1.033 2.85 1.55 4.75 1.55v0c2.313 0 4.137-0.62 5.47-1.86 1.333-1.247 2-2.87 2-4.87v0h5.13c0 2.333-0.523 4.323-1.57 5.97-1.04 1.64-2.5 2.9-4.38 3.78-1.887 0.887-4.103 1.33-6.65 1.33zM45 0.65v0c-2.18 0-4.133-0.477-5.86-1.43-1.727-0.947-3.09-2.363-4.09-4.25-1-1.88-1.5-4.203-1.5-6.97v0c0-2.82 0.5-5.167 1.5-7.04 1-1.873 2.363-3.287 4.09-4.24 1.727-0.947 3.68-1.42 5.86-1.42v0c2.153 0 4.087 0.473 5.8 1.42 1.72 0.953 3.073 2.367 4.06 4.24 0.993 1.873 1.49 4.22 1.49 7.04v0c0 2.767-0.497 5.09-1.49 6.97-0.987 1.887-2.34 3.303-4.06 4.25-1.713 0.953-3.647 1.43-5.8 1.43zM44.85-3.5v0c1.387 0 2.583-0.333 3.59-1 1.007-0.667 1.78-1.637 2.32-2.91 0.547-1.28 0.82-2.81 0.82-4.59v0c0-2.733-0.557-4.85-1.67-6.35-1.107-1.5-2.7-2.25-4.78-2.25v0c-1.4 0-2.607 0.337-3.62 1.01-1.007 0.68-1.78 1.657-2.32 2.93-0.54 1.273-0.81 2.827-0.81 4.66v0c0 2.68 0.557 4.767 1.67 6.26 1.12 1.493 2.72 2.24 4.8 2.24zM101.8 0h-4.77v-14.1c0-2.087-0.497-3.667-1.49-4.74-0.993-1.073-2.323-1.61-3.99-1.61v0c-2 0-3.547 0.783-4.64 2.35-1.087 1.567-1.63 3.817-1.63 6.75v0h-2.08c0-2.32 0.227-4.32 0.68-6 0.447-1.687 1.09-3.07 1.93-4.15 0.847-1.087 1.857-1.89 3.03-2.41 1.173-0.527 2.487-0.79 3.94-0.79v0c1.933 0 3.57 0.433 4.91 1.3 1.34 0.867 2.36 2.097 3.06 3.69 0.7 1.593 1.05 3.463 1.05 5.61v0zM68.45 0h-4.75v-24.05h4.13l0.52 4.52c0.767-1.68 1.82-2.963 3.16-3.85 1.347-0.88 2.927-1.32 4.74-1.32v0c1.933 0 3.57 0.433 4.91 1.3 1.347 0.867 2.37 2.097 3.07 3.69 0.7 1.593 1.05 3.463 1.05 5.61v0 14.1h-4.73v-14.1c0-2.087-0.497-3.667-1.49-4.74-0.987-1.073-2.323-1.61-4.01-1.61v0c-1.333 0-2.497 0.363-3.49 1.09-0.987 0.72-1.753 1.777-2.3 3.17-0.54 1.393-0.81 3.09-0.81 5.09v0zM148.85 0h-4.78v-14.1c0-2.087-0.493-3.667-1.48-4.74-0.993-1.073-2.323-1.61-3.99-1.61v0c-2 0-3.547 0.783-4.64 2.35-1.093 1.567-1.64 3.817-1.64 6.75v0h-2.07c0-2.32 0.227-4.32 0.68-6 0.447-1.687 1.09-3.07 1.93-4.15 0.847-1.087 1.857-1.89 3.03-2.41 1.173-0.527 2.483-0.79 3.93-0.79v0c1.933 0 3.573 0.433 4.92 1.3 1.34 0.867 2.36 2.097 3.06 3.69 0.7 1.593 1.05 3.463 1.05 5.61v0zM115.5 0h-4.75v-24.05h4.13l0.52 4.52c0.767-1.68 1.82-2.963 3.16-3.85 1.347-0.88 2.927-1.32 4.74-1.32v0c1.933 0 3.57 0.433 4.91 1.3 1.34 0.867 2.363 2.097 3.07 3.69 0.693 1.593 1.04 3.463 1.04 5.61v0 14.1h-4.72v-14.1c0-2.087-0.497-3.667-1.49-4.74-0.987-1.073-2.323-1.61-4.01-1.61v0c-1.333 0-2.497 0.363-3.49 1.09-0.987 0.72-1.753 1.777-2.3 3.17-0.54 1.393-0.81 3.09-0.81 5.09v0zM174 0v-24.13h4.78v24.13zM157.2-8.8v-15.33h4.75v14.91c0 1.813 0.447 3.187 1.34 4.12 0.893 0.933 2.147 1.4 3.76 1.4v0c1.367 0 2.57-0.36 3.61-1.08 1.047-0.713 1.863-1.73 2.45-3.05 0.593-1.313 0.89-2.87 0.89-4.67v0h1.53c0 2.813-0.383 5.18-1.15 7.1-0.767 1.913-1.843 3.367-3.23 4.36-1.38 0.993-2.997 1.49-4.85 1.49v0c-1.767 0-3.337-0.327-4.71-0.98-1.373-0.647-2.45-1.65-3.23-3.01-0.773-1.36-1.16-3.113-1.16-5.26zM210.1 0h-4.72v-14.1c0-2.087-0.497-3.667-1.49-4.74-0.993-1.073-2.33-1.61-4.01-1.61v0c-1.333 0-2.497 0.363-3.49 1.09-0.993 0.72-1.76 1.777-2.3 3.17-0.54 1.393-0.81 3.09-0.81 5.09v0h-1.7c0-2.953 0.377-5.437 1.13-7.45 0.76-2.02 1.847-3.55 3.26-4.59 1.42-1.04 3.123-1.56 5.11-1.56v0c1.933 0 3.57 0.433 4.91 1.3 1.34 0.867 2.36 2.097 3.06 3.69 0.7 1.593 1.05 3.463 1.05 5.61v0zM193.28 0h-4.75v-24.05h4.12l0.63 5.2zM221.88-29.18v0c-0.953 0-1.7-0.26-2.24-0.78-0.547-0.527-0.82-1.24-0.82-2.14v0c0-0.867 0.273-1.553 0.82-2.06 0.54-0.513 1.287-0.77 2.24-0.77v0c0.933 0 1.67 0.257 2.21 0.77 0.54 0.507 0.81 1.193 0.81 2.06v0c0 0.9-0.27 1.613-0.81 2.14-0.54 0.52-1.277 0.78-2.21 0.78zM224.25 0h-4.75v-24.13h4.75zM242.4 0.65v0c-1.367 0-2.6-0.26-3.7-0.78-1.1-0.513-1.97-1.29-2.61-2.33-0.64-1.047-0.96-2.36-0.96-3.94v0-24.2h4.72v24.05c0 2.267 1.06 3.4 3.18 3.4v0c0.647 0 1.28-0.07 1.9-0.21 0.613-0.147 1.313-0.36 2.1-0.64v0l0.67 3.37c-0.88 0.367-1.75 0.673-2.61 0.92-0.86 0.24-1.757 0.36-2.69 0.36zM246.98-20.83h-15.53v-3.22h15.53zM259.82 0l-9.77-24.05h5.33l7.25 19.9h-0.98l5.83-19.9h4.84l-9.12 28.68c-0.833 2.6-1.903 4.543-3.21 5.83-1.313 1.293-2.953 1.94-4.92 1.94v0c-1.093 0-2.147-0.14-3.16-0.42-1.007-0.287-2.037-0.703-3.09-1.25v0-4.28c0.907 0.633 1.777 1.093 2.61 1.38 0.833 0.28 1.7 0.42 2.6 0.42v0c0.9 0 1.67-0.27 2.31-0.81 0.64-0.54 1.18-1.257 1.62-2.15 0.447-0.893 0.827-1.863 1.14-2.91v0z" fill="#000000" fill-rule="nonzero" stroke="none" stroke-width="1" stroke-linecap="butt" stroke-linejoin="miter" stroke-miterlimit="10" stroke-dasharray="" stroke-dashoffset="0" font-family="none" font-weight="none" font-size="none" text-anchor="none" style="mix-blend-mode: normal" data-fill-palette-color="primary" opacity="1"></path><path xmlns="http://www.w3.org/2000/svg" d="M9.55 50.33h-4.8v-31.85h10.68c3.547 0 6.28 0.883 8.2 2.65 1.913 1.767 2.87 4.207 2.87 7.32v0c0 3.087-0.957 5.51-2.87 7.27-1.92 1.753-4.653 2.63-8.2 2.63v0h-5.88zM9.55 22.58v11.62h5.88c2.033 0 3.573-0.523 4.62-1.57 1.053-1.053 1.58-2.447 1.58-4.18v0c0-1.747-0.527-3.163-1.58-4.25-1.047-1.08-2.587-1.62-4.62-1.62v0zM49.33 50.33v-24.13h4.77v24.13zM32.52 41.53v-15.33h4.75v14.91c0 1.813 0.447 3.187 1.34 4.12 0.893 0.933 2.15 1.4 3.77 1.4v0c1.36 0 2.563-0.36 3.61-1.08 1.04-0.713 1.857-1.73 2.45-3.05 0.593-1.313 0.89-2.87 0.89-4.67v0h1.52c0 2.813-0.383 5.18-1.15 7.1-0.767 1.913-1.84 3.367-3.22 4.36-1.387 0.993-3.003 1.49-4.85 1.49v0c-1.767 0-3.34-0.327-4.72-0.98-1.373-0.647-2.447-1.65-3.22-3.01-0.78-1.36-1.17-3.113-1.17-5.26zM68.6 50.33h-4.75v-24.13h4.75zM68.6 39.58h-1.3c0-3.087 0.32-5.65 0.96-7.69 0.64-2.04 1.54-3.56 2.7-4.56 1.16-1 2.523-1.5 4.09-1.5v0c0.467 0 0.903 0.033 1.31 0.1 0.407 0.067 0.813 0.157 1.22 0.27v0l-0.18 4.73c-0.453-0.12-0.94-0.223-1.46-0.31-0.527-0.093-1.007-0.14-1.44-0.14v0c-1.367 0-2.483 0.363-3.35 1.09-0.867 0.72-1.51 1.76-1.93 3.12-0.413 1.36-0.62 2.99-0.62 4.89zM91.38 50.98v0c-2.333 0-4.3-0.33-5.9-0.99-1.6-0.66-2.823-1.577-3.67-2.75-0.84-1.173-1.277-2.553-1.31-4.14v0h4.48c0.067 1.387 0.62 2.413 1.66 3.08 1.04 0.667 2.453 1 4.24 1v0c0.947 0 1.807-0.15 2.58-0.45 0.78-0.3 1.397-0.71 1.85-1.23 0.46-0.513 0.69-1.097 0.69-1.75v0c0-0.813-0.3-1.457-0.9-1.93-0.6-0.473-1.567-0.897-2.9-1.27v0l-4.92-1.67c-1.967-0.667-3.477-1.553-4.53-2.66-1.053-1.113-1.58-2.443-1.58-3.99v0c0-1.987 0.887-3.583 2.66-4.79 1.767-1.207 4.107-1.81 7.02-1.81v0c3.02 0 5.35 0.637 6.99 1.91 1.64 1.273 2.493 2.87 2.56 4.79v0h-4.57c-0.12-0.953-0.593-1.683-1.42-2.19-0.82-0.507-2.007-0.76-3.56-0.76v0c-1.447 0-2.583 0.317-3.41 0.95-0.827 0.633-1.24 1.35-1.24 2.15v0c0 1.433 1.233 2.5 3.7 3.2v0l5.18 1.82c1.967 0.633 3.483 1.45 4.55 2.45 1.067 1 1.6 2.267 1.6 3.8v0c0 1.233-0.41 2.4-1.23 3.5-0.813 1.1-1.96 1.997-3.44 2.69-1.473 0.693-3.2 1.04-5.18 1.04zM125.1 50.33v-24.13h4.78v24.13zM108.3 41.53v-15.33h4.75v14.91c0 1.813 0.447 3.187 1.34 4.12 0.893 0.933 2.147 1.4 3.76 1.4v0c1.367 0 2.57-0.36 3.61-1.08 1.047-0.713 1.863-1.73 2.45-3.05 0.593-1.313 0.89-2.87 0.89-4.67v0h1.53c0 2.813-0.383 5.18-1.15 7.1-0.767 1.913-1.843 3.367-3.23 4.36-1.38 0.993-2.997 1.49-4.85 1.49v0c-1.767 0-3.337-0.327-4.71-0.98-1.373-0.647-2.45-1.65-3.23-3.01-0.773-1.36-1.16-3.113-1.16-5.26zM142.38 21.15v0c-0.953 0-1.7-0.26-2.24-0.78-0.547-0.527-0.82-1.24-0.82-2.14v0c0-0.867 0.273-1.553 0.82-2.06 0.54-0.513 1.287-0.77 2.24-0.77v0c0.933 0 1.67 0.257 2.21 0.77 0.54 0.507 0.81 1.193 0.81 2.06v0c0 0.9-0.27 1.613-0.81 2.14-0.54 0.52-1.277 0.78-2.21 0.78zM144.75 50.33h-4.75v-24.13h4.75zM162.9 50.98v0c-1.367 0-2.6-0.26-3.7-0.78-1.1-0.513-1.97-1.29-2.61-2.33-0.64-1.047-0.96-2.36-0.96-3.94v0-24.2h4.72v24.05c0 2.267 1.06 3.4 3.18 3.4v0c0.647 0 1.28-0.07 1.9-0.21 0.613-0.147 1.313-0.36 2.1-0.64v0l0.67 3.37c-0.88 0.367-1.75 0.673-2.61 0.92-0.86 0.24-1.757 0.36-2.69 0.36zM167.48 29.5h-15.53v-3.22h15.53z" fill="#000000" fill-rule="nonzero" stroke="none" stroke-width="1" stroke-linecap="butt" stroke-linejoin="miter" stroke-miterlimit="10" stroke-dasharray="" stroke-dashoffset="0" font-family="none" font-weight="none" font-size="none" text-anchor="none" style="mix-blend-mode: normal" data-fill-palette-color="primary" opacity="1"></path></g></svg></g></svg></g></svg></g></svg></g><g><svg viewBox="0 0 203.87372438974563 203.876819032796" height="203.876819032796" width="203.87372438974563"><g><svg xmlns="http://www.w3.org/2000/svg" xmlns:xlink="http://www.w3.org/1999/xlink" version="1.1" x="0" y="0" viewBox="15.022998809814453 16.82699966430664 66.34599304199219 66.34700012207031" enable-background="new 0 0 100 100" xml:space="preserve" height="203.876819032796" width="203.87372438974563" class="icon-icon-0" data-fill-palette-color="accent" id="icon-0"><path d="M76.976 44.695c-0.76-4.13-2.385-7.96-4.687-11.291 1.436-2.102 1.229-4.997-0.636-6.861-1.021-1.021-2.377-1.583-3.82-1.583-1.104 0-2.154 0.334-3.044 0.945-3.331-2.301-7.159-3.926-11.289-4.685-0.475-2.498-2.671-4.393-5.304-4.393s-4.83 1.896-5.304 4.393c-4.13 0.759-7.958 2.384-11.289 4.685-0.891-0.611-1.941-0.945-3.044-0.945-1.443 0-2.8 0.563-3.82 1.583-1.864 1.864-2.071 4.759-0.636 6.861-2.302 3.331-3.927 7.161-4.687 11.291-2.497 0.475-4.393 2.671-4.393 5.305 0 2.633 1.896 4.83 4.393 5.304 0.76 4.131 2.385 7.96 4.687 11.292-1.435 2.102-1.228 4.997 0.636 6.862 1.021 1.021 2.377 1.582 3.82 1.582 1.104 0 2.154-0.333 3.044-0.944 3.331 2.301 7.16 3.926 11.289 4.685 0.475 2.497 2.671 4.393 5.304 4.393s4.83-1.896 5.304-4.393c4.13-0.759 7.958-2.384 11.289-4.685 0.891 0.611 1.941 0.944 3.044 0.944 1.443 0 2.8-0.562 3.82-1.582 1.863-1.864 2.07-4.759 0.636-6.862 2.302-3.332 3.928-7.161 4.687-11.292 2.497-0.475 4.393-2.671 4.393-5.304C81.369 47.367 79.473 45.17 76.976 44.695zM75.966 52.403c-1.324 0-2.402-1.078-2.402-2.402 0-1.325 1.078-2.403 2.402-2.403s2.402 1.078 2.402 2.403C78.369 51.324 77.291 52.403 75.966 52.403zM69.532 71.337c-0.908 0.906-2.49 0.906-3.398 0-0.937-0.937-0.937-2.462 0-3.398 0.454-0.454 1.058-0.704 1.699-0.704s1.245 0.25 1.699 0.704C70.467 68.875 70.467 70.401 69.532 71.337zM50.597 77.772c0 1.324-1.078 2.402-2.402 2.402s-2.402-1.078-2.402-2.402 1.078-2.402 2.402-2.402S50.597 76.448 50.597 77.772zM26.858 71.337c-0.936-0.937-0.936-2.462 0-3.398 0.454-0.454 1.058-0.704 1.699-0.704s1.245 0.25 1.699 0.704c0.937 0.937 0.937 2.462 0 3.398C29.348 72.243 27.766 72.243 26.858 71.337zM18.021 50c0-1.325 1.078-2.403 2.402-2.403s2.402 1.078 2.402 2.403c0 1.324-1.078 2.402-2.402 2.402S18.021 51.324 18.021 50zM26.858 28.664c0.454-0.454 1.058-0.704 1.699-0.704s1.245 0.25 1.699 0.705c0.454 0.454 0.704 1.057 0.704 1.699 0 0.642-0.25 1.245-0.704 1.699-0.908 0.907-2.49 0.907-3.398 0C25.921 31.125 25.921 29.601 26.858 28.664zM45.792 22.229c0-1.325 1.078-2.403 2.402-2.403s2.402 1.078 2.402 2.403-1.078 2.403-2.402 2.403S45.792 23.553 45.792 22.229zM67.833 27.96c0.642 0 1.245 0.25 1.699 0.704 0.937 0.937 0.937 2.461 0 3.398-0.908 0.907-2.49 0.908-3.398 0-0.454-0.454-0.704-1.057-0.704-1.698 0-0.642 0.25-1.245 0.704-1.699C66.587 28.21 67.191 27.96 67.833 27.96zM67.833 64.235c-1.443 0-2.8 0.563-3.82 1.583-1.608 1.608-1.979 3.983-1.131 5.956-2.87 1.942-6.145 3.327-9.667 4.012-0.794-1.998-2.742-3.416-5.019-3.416s-4.225 1.418-5.019 3.416c-3.522-0.684-6.797-2.069-9.667-4.012 0.848-1.973 0.477-4.348-1.131-5.956-1.021-1.021-2.377-1.583-3.82-1.583-0.749 0-1.472 0.158-2.139 0.447-1.94-2.869-3.324-6.142-4.008-9.662 1.998-0.794 3.416-2.742 3.416-5.019 0-2.277-1.418-4.226-3.416-5.019 0.684-3.52 2.068-6.793 4.008-9.662 0.667 0.288 1.39 0.447 2.139 0.447 1.443 0 2.8-0.563 3.82-1.583 1.021-1.021 1.583-2.377 1.583-3.82 0-0.749-0.158-1.472-0.447-2.14 2.869-1.94 6.142-3.324 9.662-4.008 0.794 1.998 2.742 3.416 5.019 3.416 2.277 0 4.225-1.418 5.019-3.416 3.52 0.684 6.793 2.068 9.662 4.008-0.289 0.668-0.447 1.391-0.447 2.14 0 1.443 0.563 2.8 1.583 3.82 1.021 1.021 2.377 1.583 3.82 1.583 0.749 0 1.472-0.158 2.139-0.447 1.94 2.869 3.324 6.142 4.008 9.662-1.997 0.794-3.416 2.742-3.416 5.019 0 2.277 1.418 4.225 3.416 5.019-0.684 3.52-2.068 6.793-4.008 9.662C69.304 64.393 68.582 64.235 67.833 64.235z" fill="#0551bf" data-fill-palette-color="accent"></path></svg></g></svg></g></svg></g><defs></defs></svg><rect width="395.52" height="130.95391309169833" fill="none" stroke="none" visibility="hidden"></rect></g></svg></g></svg>